<svg xmlns="http://www.w3.org/2000/svg" version="1.1" xmlns:xlink="http://www.w3.org/1999/xlink" xmlns:svgjs="http://svgjs.com/svgjs" width="1440" height="560" preserveAspectRatio="none" viewBox="0 0 1440 560"><g mask="url(&quot;#SvgjsMask1571&quot;)" fill="none"><rect width="1440" height="560" x="0" y="0" fill="rgba(16, 39, 95, 1)"></rect><path d="M1440 0L1041.85 0L1440 148.28z" fill="rgba(255, 255, 255, .1)"></path><path d="M1041.85 0L1440 148.28L1440 309.12L666.9699999999999 0z" fill="rgba(255, 255, 255, .075)"></path><path d="M666.97 0L1440 309.12L1440 440.33000000000004L350.26000000000005 0z" fill="rgba(255, 255, 255, .05)"></path><path d="M350.26 0L1440 440.33000000000004L1440 501.40000000000003L199.97 0z" fill="rgba(255, 255, 255, .025)"></path><path d="M0 560L667.02 560L0 509.61z" fill="rgba(0, 0, 0, .1)"></path><path d="M0 509.61L667.02 560L946.55 560L0 291.1z" fill="rgba(0, 0, 0, .075)"></path><path d="M0 291.1L946.55 560L1224.24 560L0 129.08z" fill="rgba(0, 0, 0, .05)"></path><path d="M0 129.08000000000004L1224.24 560L1243.64 560L0 115.18000000000004z" fill="rgba(0, 0, 0, .025)"></path></g><defs><mask id="SvgjsMask1571"><rect width="1440" height="560" fill="#ffffff"></rect></mask></defs></svg>