<svg xmlns="http://www.w3.org/2000/svg" version="1.1" xmlns:xlink="http://www.w3.org/1999/xlink" xmlns:svgjs="http://svgjs.com/svgjs" width="1440" height="800" preserveAspectRatio="none" viewBox="0 0 1440 800"><g mask="url(&quot;#SvgjsMask1006&quot;)" fill="none"><rect width="1440" height="800" x="0" y="0" fill="#0e2a47"></rect><path d="M-71.55 523.47L-71.55 523.47" stroke="#132e65" stroke-width="1.5"></path><path d="M-71.55 523.47L71.38 488.46" stroke="#132e65" stroke-width="1.5"></path><path d="M-71.55 523.47L-74.24 672.74" stroke="#132e65" stroke-width="1.5"></path><path d="M-71.55 523.47L203.96 537.34" stroke="#132e65" stroke-width="1.5"></path><path d="M-71.55 523.47L83.97 820.38" stroke="#132e65" stroke-width="1.5"></path><path d="M-71.55 523.47L-110.33 859.59" stroke="#132e65" stroke-width="1.5"></path><path d="M-71.55 523.47L243.89 670.9" stroke="#132e65" stroke-width="1.5"></path><path d="M-74.24 672.74L-74.24 672.74" stroke="#132e65" stroke-width="1.5"></path><path d="M-74.24 672.74L-110.33 859.59" stroke="#132e65" stroke-width="1.5"></path><path d="M-74.24 672.74L83.97 820.38" stroke="#132e65" stroke-width="1.5"></path><path d="M-74.24 672.74L71.38 488.46" stroke="#132e65" stroke-width="1.5"></path><path d="M-74.24 672.74L45.41 946.7" stroke="#132e65" stroke-width="1.5"></path><path d="M-110.33 859.59L-110.33 859.59" stroke="#132e65" stroke-width="1.5"></path><path d="M-110.33 859.59L-55.67 1010.21" stroke="#132e65" stroke-width="1.5"></path><path d="M-110.33 859.59L45.41 946.7" stroke="#132e65" stroke-width="1.5"></path><path d="M-110.33 859.59L83.97 820.38" stroke="#132e65" stroke-width="1.5"></path><path d="M-110.33 859.59L216.51 938.56" stroke="#132e65" stroke-width="1.5"></path><path d="M-55.67 1010.21L-55.67 1010.21" stroke="#132e65" stroke-width="1.5"></path><path d="M-55.67 1010.21L45.41 946.7" stroke="#132e65" stroke-width="1.5"></path><path d="M-55.67 1010.21L83.97 820.38" stroke="#132e65" stroke-width="1.5"></path><path d="M-55.67 1010.21L216.51 938.56" stroke="#132e65" stroke-width="1.5"></path><path d="M-55.67 1010.21L-74.24 672.74" stroke="#132e65" stroke-width="1.5"></path><path d="M71.38 488.46L71.38 488.46" stroke="#132e65" stroke-width="1.5"></path><path d="M71.38 488.46L203.96 537.34" stroke="#132e65" stroke-width="1.5"></path><path d="M71.38 488.46L243.89 670.9" stroke="#132e65" stroke-width="1.5"></path><path d="M71.38 488.46L83.97 820.38" stroke="#132e65" stroke-width="1.5"></path><path d="M71.38 488.46L400.02 552.15" stroke="#132e65" stroke-width="1.5"></path><path d="M83.97 820.38L83.97 820.38" stroke="#132e65" stroke-width="1.5"></path><path d="M83.97 820.38L45.41 946.7" stroke="#132e65" stroke-width="1.5"></path><path d="M83.97 820.38L234.34 819.49" stroke="#132e65" stroke-width="1.5"></path><path d="M45.41 946.7L45.41 946.7" stroke="#132e65" stroke-width="1.5"></path><path d="M45.41 946.7L216.51 938.56" stroke="#132e65" stroke-width="1.5"></path><path d="M203.96 537.34L203.96 537.34" stroke="#132e65" stroke-width="1.5"></path><path d="M203.96 537.34L243.89 670.9" stroke="#132e65" stroke-width="1.5"></path><path d="M203.96 537.34L400.02 552.15" stroke="#132e65" stroke-width="1.5"></path><path d="M203.96 537.34L363.37 674.37" stroke="#132e65" stroke-width="1.5"></path><path d="M243.89 670.9L243.89 670.9" stroke="#132e65" stroke-width="1.5"></path><path d="M243.89 670.9L363.37 674.37" stroke="#132e65" stroke-width="1.5"></path><path d="M243.89 670.9L234.34 819.49" stroke="#132e65" stroke-width="1.5"></path><path d="M243.89 670.9L400.02 552.15" stroke="#132e65" stroke-width="1.5"></path><path d="M243.89 670.9L338.09 860.06" stroke="#132e65" stroke-width="1.5"></path><path d="M243.89 670.9L83.97 820.38" stroke="#132e65" stroke-width="1.5"></path><path d="M234.34 819.49L234.34 819.49" stroke="#132e65" stroke-width="1.5"></path><path d="M234.34 819.49L338.09 860.06" stroke="#132e65" stroke-width="1.5"></path><path d="M234.34 819.49L216.51 938.56" stroke="#132e65" stroke-width="1.5"></path><path d="M216.51 938.56L216.51 938.56" stroke="#132e65" stroke-width="1.5"></path><path d="M216.51 938.56L354.72 963.81" stroke="#132e65" stroke-width="1.5"></path><path d="M400.02 552.15L400.02 552.15" stroke="#132e65" stroke-width="1.5"></path><path d="M400.02 552.15L363.37 674.37" stroke="#132e65" stroke-width="1.5"></path><path d="M400.02 552.15L532.15 552.86" stroke="#132e65" stroke-width="1.5"></path><path d="M400.02 552.15L524.68 710.94" stroke="#132e65" stroke-width="1.5"></path><path d="M400.02 552.15L543.65 387.01" stroke="#132e65" stroke-width="1.5"></path><path d="M363.37 674.37L363.37 674.37" stroke="#132e65" stroke-width="1.5"></path><path d="M363.37 674.37L524.68 710.94" stroke="#132e65" stroke-width="1.5"></path><path d="M363.37 674.37L338.09 860.06" stroke="#132e65" stroke-width="1.5"></path><path d="M363.37 674.37L234.34 819.49" stroke="#132e65" stroke-width="1.5"></path><path d="M363.37 674.37L532.15 552.86" stroke="#132e65" stroke-width="1.5"></path><path d="M338.09 860.06L338.09 860.06" stroke="#132e65" stroke-width="1.5"></path><path d="M338.09 860.06L354.72 963.81" stroke="#132e65" stroke-width="1.5"></path><path d="M338.09 860.06L216.51 938.56" stroke="#132e65" stroke-width="1.5"></path><path d="M354.72 963.81L354.72 963.81" stroke="#132e65" stroke-width="1.5"></path><path d="M354.72 963.81L499.52 956.28" stroke="#132e65" stroke-width="1.5"></path><path d="M354.72 963.81L234.34 819.49" stroke="#132e65" stroke-width="1.5"></path><path d="M354.72 963.81L540.96 813.3" stroke="#132e65" stroke-width="1.5"></path><path d="M354.72 963.81L363.37 674.37" stroke="#132e65" stroke-width="1.5"></path><path d="M543.65 387.01L543.65 387.01" stroke="#132e65" stroke-width="1.5"></path><path d="M543.65 387.01L695.39 389.45" stroke="#132e65" stroke-width="1.5"></path><path d="M543.65 387.01L532.15 552.86" stroke="#132e65" stroke-width="1.5"></path><path d="M543.65 387.01L696.53 536.85" stroke="#132e65" stroke-width="1.5"></path><path d="M532.15 552.86L532.15 552.86" stroke="#132e65" stroke-width="1.5"></path><path d="M532.15 552.86L524.68 710.94" stroke="#132e65" stroke-width="1.5"></path><path d="M532.15 552.86L696.53 536.85" stroke="#132e65" stroke-width="1.5"></path><path d="M524.68 710.94L524.68 710.94" stroke="#132e65" stroke-width="1.5"></path><path d="M524.68 710.94L540.96 813.3" stroke="#132e65" stroke-width="1.5"></path><path d="M524.68 710.94L679.83 682.55" stroke="#132e65" stroke-width="1.5"></path><path d="M540.96 813.3L540.96 813.3" stroke="#132e65" stroke-width="1.5"></path><path d="M540.96 813.3L685 829.42" stroke="#132e65" stroke-width="1.5"></path><path d="M540.96 813.3L499.52 956.28" stroke="#132e65" stroke-width="1.5"></path><path d="M540.96 813.3L679.83 682.55" stroke="#132e65" stroke-width="1.5"></path><path d="M540.96 813.3L338.09 860.06" stroke="#132e65" stroke-width="1.5"></path><path d="M540.96 813.3L363.37 674.37" stroke="#132e65" stroke-width="1.5"></path><path d="M499.52 956.28L499.52 956.28" stroke="#132e65" stroke-width="1.5"></path><path d="M695.39 389.45L695.39 389.45" stroke="#132e65" stroke-width="1.5"></path><path d="M695.39 389.45L696.53 536.85" stroke="#132e65" stroke-width="1.5"></path><path d="M695.39 389.45L845.37 382" stroke="#132e65" stroke-width="1.5"></path><path d="M695.39 389.45L838.16 489.12" stroke="#132e65" stroke-width="1.5"></path><path d="M695.39 389.45L532.15 552.86" stroke="#132e65" stroke-width="1.5"></path><path d="M695.39 389.45L848.78 198.89" stroke="#132e65" stroke-width="1.5"></path><path d="M696.53 536.85L696.53 536.85" stroke="#132e65" stroke-width="1.5"></path><path d="M696.53 536.85L679.83 682.55" stroke="#132e65" stroke-width="1.5"></path><path d="M696.53 536.85L838.16 489.12" stroke="#132e65" stroke-width="1.5"></path><path d="M696.53 536.85L831.25 646.24" stroke="#132e65" stroke-width="1.5"></path><path d="M679.83 682.55L679.83 682.55" stroke="#132e65" stroke-width="1.5"></path><path d="M679.83 682.55L685 829.42" stroke="#132e65" stroke-width="1.5"></path><path d="M679.83 682.55L831.25 646.24" stroke="#132e65" stroke-width="1.5"></path><path d="M685 829.42L685 829.42" stroke="#132e65" stroke-width="1.5"></path><path d="M685 829.42L797.11 834.85" stroke="#132e65" stroke-width="1.5"></path><path d="M685 829.42L707.36 983.93" stroke="#132e65" stroke-width="1.5"></path><path d="M685 829.42L524.68 710.94" stroke="#132e65" stroke-width="1.5"></path><path d="M707.36 983.93L707.36 983.93" stroke="#132e65" stroke-width="1.5"></path><path d="M707.36 983.93L810.02 986.53" stroke="#132e65" stroke-width="1.5"></path><path d="M707.36 983.93L797.11 834.85" stroke="#132e65" stroke-width="1.5"></path><path d="M848.78 198.89L848.78 198.89" stroke="#132e65" stroke-width="1.5"></path><path d="M848.78 198.89L977.21 234.2" stroke="#132e65" stroke-width="1.5"></path><path d="M848.78 198.89L845.37 382" stroke="#132e65" stroke-width="1.5"></path><path d="M845.37 382L845.37 382" stroke="#132e65" stroke-width="1.5"></path><path d="M845.37 382L838.16 489.12" stroke="#132e65" stroke-width="1.5"></path><path d="M845.37 382L955.57 361.32" stroke="#132e65" stroke-width="1.5"></path><path d="M838.16 489.12L838.16 489.12" stroke="#132e65" stroke-width="1.5"></path><path d="M838.16 489.12L831.25 646.24" stroke="#132e65" stroke-width="1.5"></path><path d="M838.16 489.12L1007.02 500.78" stroke="#132e65" stroke-width="1.5"></path><path d="M838.16 489.12L955.57 361.32" stroke="#132e65" stroke-width="1.5"></path><path d="M831.25 646.24L831.25 646.24" stroke="#132e65" stroke-width="1.5"></path><path d="M831.25 646.24L979.02 691.28" stroke="#132e65" stroke-width="1.5"></path><path d="M831.25 646.24L797.11 834.85" stroke="#132e65" stroke-width="1.5"></path><path d="M831.25 646.24L949.47 821.87" stroke="#132e65" stroke-width="1.5"></path><path d="M797.11 834.85L797.11 834.85" stroke="#132e65" stroke-width="1.5"></path><path d="M797.11 834.85L810.02 986.53" stroke="#132e65" stroke-width="1.5"></path><path d="M797.11 834.85L949.47 821.87" stroke="#132e65" stroke-width="1.5"></path><path d="M810.02 986.53L810.02 986.53" stroke="#132e65" stroke-width="1.5"></path><path d="M810.02 986.53L997.93 1010.89" stroke="#132e65" stroke-width="1.5"></path><path d="M810.02 986.53L685 829.42" stroke="#132e65" stroke-width="1.5"></path><path d="M810.02 986.53L949.47 821.87" stroke="#132e65" stroke-width="1.5"></path><path d="M987.22 -110.3L987.22 -110.3" stroke="#132e65" stroke-width="1.5"></path><path d="M987.22 -110.3L1095.13 -100.49" stroke="#132e65" stroke-width="1.5"></path><path d="M987.22 -110.3L1009.38 68.24" stroke="#132e65" stroke-width="1.5"></path><path d="M1009.38 68.24L1009.38 68.24" stroke="#132e65" stroke-width="1.5"></path><path d="M1009.38 68.24L1124.86 57.16" stroke="#132e65" stroke-width="1.5"></path><path d="M1009.38 68.24L977.21 234.2" stroke="#132e65" stroke-width="1.5"></path><path d="M1009.38 68.24L1095.13 -100.49" stroke="#132e65" stroke-width="1.5"></path><path d="M1009.38 68.24L848.78 198.89" stroke="#132e65" stroke-width="1.5"></path><path d="M1009.38 68.24L1253.24 211.06" stroke="#132e65" stroke-width="1.5"></path><path d="M977.21 234.2L977.21 234.2" stroke="#132e65" stroke-width="1.5"></path><path d="M977.21 234.2L955.57 361.32" stroke="#132e65" stroke-width="1.5"></path><path d="M977.21 234.2L845.37 382" stroke="#132e65" stroke-width="1.5"></path><path d="M977.21 234.2L1124.86 57.16" stroke="#132e65" stroke-width="1.5"></path><path d="M977.21 234.2L1145.11 412.01" stroke="#132e65" stroke-width="1.5"></path><path d="M955.57 361.32L955.57 361.32" stroke="#132e65" stroke-width="1.5"></path><path d="M955.57 361.32L1007.02 500.78" stroke="#132e65" stroke-width="1.5"></path><path d="M1007.02 500.78L1007.02 500.78" stroke="#132e65" stroke-width="1.5"></path><path d="M1007.02 500.78L1159.41 544.44" stroke="#132e65" stroke-width="1.5"></path><path d="M1007.02 500.78L1145.11 412.01" stroke="#132e65" stroke-width="1.5"></path><path d="M1007.02 500.78L979.02 691.28" stroke="#132e65" stroke-width="1.5"></path><path d="M979.02 691.28L979.02 691.28" stroke="#132e65" stroke-width="1.5"></path><path d="M979.02 691.28L949.47 821.87" stroke="#132e65" stroke-width="1.5"></path><path d="M979.02 691.28L1138.83 696.47" stroke="#132e65" stroke-width="1.5"></path><path d="M979.02 691.28L1110.9 848.31" stroke="#132e65" stroke-width="1.5"></path><path d="M979.02 691.28L797.11 834.85" stroke="#132e65" stroke-width="1.5"></path><path d="M949.47 821.87L949.47 821.87" stroke="#132e65" stroke-width="1.5"></path><path d="M949.47 821.87L1110.9 848.31" stroke="#132e65" stroke-width="1.5"></path><path d="M949.47 821.87L997.93 1010.89" stroke="#132e65" stroke-width="1.5"></path><path d="M997.93 1010.89L997.93 1010.89" stroke="#132e65" stroke-width="1.5"></path><path d="M997.93 1010.89L1154.76 948.77" stroke="#132e65" stroke-width="1.5"></path><path d="M997.93 1010.89L1110.9 848.31" stroke="#132e65" stroke-width="1.5"></path><path d="M1095.13 -100.49L1095.13 -100.49" stroke="#132e65" stroke-width="1.5"></path><path d="M1095.13 -100.49L1124.86 57.16" stroke="#132e65" stroke-width="1.5"></path><path d="M1095.13 -100.49L1311.24 109.99" stroke="#132e65" stroke-width="1.5"></path><path d="M1124.86 57.16L1124.86 57.16" stroke="#132e65" stroke-width="1.5"></path><path d="M1124.86 57.16L1311.24 109.99" stroke="#132e65" stroke-width="1.5"></path><path d="M1124.86 57.16L1253.24 211.06" stroke="#132e65" stroke-width="1.5"></path><path d="M1124.86 57.16L987.22 -110.3" stroke="#132e65" stroke-width="1.5"></path><path d="M1145.11 412.01L1145.11 412.01" stroke="#132e65" stroke-width="1.5"></path><path d="M1145.11 412.01L1258.11 349.37" stroke="#132e65" stroke-width="1.5"></path><path d="M1145.11 412.01L1159.41 544.44" stroke="#132e65" stroke-width="1.5"></path><path d="M1145.11 412.01L1310.81 494.8" stroke="#132e65" stroke-width="1.5"></path><path d="M1145.11 412.01L955.57 361.32" stroke="#132e65" stroke-width="1.5"></path><path d="M1145.11 412.01L1253.24 211.06" stroke="#132e65" stroke-width="1.5"></path><path d="M1159.41 544.44L1159.41 544.44" stroke="#132e65" stroke-width="1.5"></path><path d="M1159.41 544.44L1138.83 696.47" stroke="#132e65" stroke-width="1.5"></path><path d="M1138.83 696.47L1138.83 696.47" stroke="#132e65" stroke-width="1.5"></path><path d="M1138.83 696.47L1110.9 848.31" stroke="#132e65" stroke-width="1.5"></path><path d="M1110.9 848.31L1110.9 848.31" stroke="#132e65" stroke-width="1.5"></path><path d="M1110.9 848.31L1154.76 948.77" stroke="#132e65" stroke-width="1.5"></path><path d="M1110.9 848.31L1257.33 809.63" stroke="#132e65" stroke-width="1.5"></path><path d="M1154.76 948.77L1154.76 948.77" stroke="#132e65" stroke-width="1.5"></path><path d="M1154.76 948.77L1309.55 972.34" stroke="#132e65" stroke-width="1.5"></path><path d="M1311.24 109.99L1311.24 109.99" stroke="#132e65" stroke-width="1.5"></path><path d="M1311.24 109.99L1253.24 211.06" stroke="#132e65" stroke-width="1.5"></path><path d="M1311.24 109.99L1427.78 63.61" stroke="#132e65" stroke-width="1.5"></path><path d="M1311.24 109.99L1398.38 -47.44" stroke="#132e65" stroke-width="1.5"></path><path d="M1311.24 109.99L1461.03 260.33" stroke="#132e65" stroke-width="1.5"></path><path d="M1311.24 109.99L1258.11 349.37" stroke="#132e65" stroke-width="1.5"></path><path d="M1253.24 211.06L1253.24 211.06" stroke="#132e65" stroke-width="1.5"></path><path d="M1253.24 211.06L1258.11 349.37" stroke="#132e65" stroke-width="1.5"></path><path d="M1258.11 349.37L1258.11 349.37" stroke="#132e65" stroke-width="1.5"></path><path d="M1258.11 349.37L1310.81 494.8" stroke="#132e65" stroke-width="1.5"></path><path d="M1258.11 349.37L1413.61 373.47" stroke="#132e65" stroke-width="1.5"></path><path d="M1310.81 494.8L1310.81 494.8" stroke="#132e65" stroke-width="1.5"></path><path d="M1310.81 494.8L1407.6 527.23" stroke="#132e65" stroke-width="1.5"></path><path d="M1310.81 494.8L1413.61 373.47" stroke="#132e65" stroke-width="1.5"></path><path d="M1310.81 494.8L1159.41 544.44" stroke="#132e65" stroke-width="1.5"></path><path d="M1310.81 494.8L1433.5 675.8" stroke="#132e65" stroke-width="1.5"></path><path d="M1257.33 809.63L1257.33 809.63" stroke="#132e65" stroke-width="1.5"></path><path d="M1257.33 809.63L1138.83 696.47" stroke="#132e65" stroke-width="1.5"></path><path d="M1257.33 809.63L1309.55 972.34" stroke="#132e65" stroke-width="1.5"></path><path d="M1309.55 972.34L1309.55 972.34" stroke="#132e65" stroke-width="1.5"></path><path d="M1309.55 972.34L1411.65 1008.28" stroke="#132e65" stroke-width="1.5"></path><path d="M1309.55 972.34L1422.73 855.87" stroke="#132e65" stroke-width="1.5"></path><path d="M1309.55 972.34L1110.9 848.31" stroke="#132e65" stroke-width="1.5"></path><path d="M1398.38 -47.44L1398.38 -47.44" stroke="#132e65" stroke-width="1.5"></path><path d="M1398.38 -47.44L1427.78 63.61" stroke="#132e65" stroke-width="1.5"></path><path d="M1398.38 -47.44L1548.57 -45.17" stroke="#132e65" stroke-width="1.5"></path><path d="M1427.78 63.61L1427.78 63.61" stroke="#132e65" stroke-width="1.5"></path><path d="M1427.78 63.61L1573.38 85.22" stroke="#132e65" stroke-width="1.5"></path><path d="M1461.03 260.33L1461.03 260.33" stroke="#132e65" stroke-width="1.5"></path><path d="M1461.03 260.33L1413.61 373.47" stroke="#132e65" stroke-width="1.5"></path><path d="M1461.03 260.33L1610.15 245.65" stroke="#132e65" stroke-width="1.5"></path><path d="M1461.03 260.33L1591.54 387" stroke="#132e65" stroke-width="1.5"></path><path d="M1413.61 373.47L1413.61 373.47" stroke="#132e65" stroke-width="1.5"></path><path d="M1413.61 373.47L1407.6 527.23" stroke="#132e65" stroke-width="1.5"></path><path d="M1413.61 373.47L1591.54 387" stroke="#132e65" stroke-width="1.5"></path><path d="M1407.6 527.23L1407.6 527.23" stroke="#132e65" stroke-width="1.5"></path><path d="M1407.6 527.23L1543.84 510.98" stroke="#132e65" stroke-width="1.5"></path><path d="M1407.6 527.23L1433.5 675.8" stroke="#132e65" stroke-width="1.5"></path><path d="M1407.6 527.23L1602.93 649.68" stroke="#132e65" stroke-width="1.5"></path><path d="M1407.6 527.23L1591.54 387" stroke="#132e65" stroke-width="1.5"></path><path d="M1433.5 675.8L1433.5 675.8" stroke="#132e65" stroke-width="1.5"></path><path d="M1433.5 675.8L1540.89 796.25" stroke="#132e65" stroke-width="1.5"></path><path d="M1433.5 675.8L1602.93 649.68" stroke="#132e65" stroke-width="1.5"></path><path d="M1433.5 675.8L1422.73 855.87" stroke="#132e65" stroke-width="1.5"></path><path d="M1433.5 675.8L1543.84 510.98" stroke="#132e65" stroke-width="1.5"></path><path d="M1422.73 855.87L1422.73 855.87" stroke="#132e65" stroke-width="1.5"></path><path d="M1422.73 855.87L1540.89 796.25" stroke="#132e65" stroke-width="1.5"></path><path d="M1422.73 855.87L1411.65 1008.28" stroke="#132e65" stroke-width="1.5"></path><path d="M1422.73 855.87L1257.33 809.63" stroke="#132e65" stroke-width="1.5"></path><path d="M1411.65 1008.28L1411.65 1008.28" stroke="#132e65" stroke-width="1.5"></path><path d="M1411.65 1008.28L1555.93 986.95" stroke="#132e65" stroke-width="1.5"></path><path d="M1411.65 1008.28L1540.89 796.25" stroke="#132e65" stroke-width="1.5"></path><path d="M1548.57 -45.17L1548.57 -45.17" stroke="#132e65" stroke-width="1.5"></path><path d="M1548.57 -45.17L1573.38 85.22" stroke="#132e65" stroke-width="1.5"></path><path d="M1548.57 -45.17L1427.78 63.61" stroke="#132e65" stroke-width="1.5"></path><path d="M1573.38 85.22L1573.38 85.22" stroke="#132e65" stroke-width="1.5"></path><path d="M1610.15 245.65L1610.15 245.65" stroke="#132e65" stroke-width="1.5"></path><path d="M1610.15 245.65L1591.54 387" stroke="#132e65" stroke-width="1.5"></path><path d="M1610.15 245.65L1573.38 85.22" stroke="#132e65" stroke-width="1.5"></path><path d="M1610.15 245.65L1413.61 373.47" stroke="#132e65" stroke-width="1.5"></path><path d="M1591.54 387L1591.54 387" stroke="#132e65" stroke-width="1.5"></path><path d="M1591.54 387L1543.84 510.98" stroke="#132e65" stroke-width="1.5"></path><path d="M1591.54 387L1602.93 649.68" stroke="#132e65" stroke-width="1.5"></path><path d="M1543.84 510.98L1543.84 510.98" stroke="#132e65" stroke-width="1.5"></path><path d="M1543.84 510.98L1602.93 649.68" stroke="#132e65" stroke-width="1.5"></path><path d="M1543.84 510.98L1413.61 373.47" stroke="#132e65" stroke-width="1.5"></path><path d="M1543.84 510.98L1310.81 494.8" stroke="#132e65" stroke-width="1.5"></path><path d="M1602.93 649.68L1602.93 649.68" stroke="#132e65" stroke-width="1.5"></path><path d="M1602.93 649.68L1540.89 796.25" stroke="#132e65" stroke-width="1.5"></path><path d="M1540.89 796.25L1540.89 796.25" stroke="#132e65" stroke-width="1.5"></path><path d="M1555.93 986.95L1555.93 986.95" stroke="#132e65" stroke-width="1.5"></path><path d="M1555.93 986.95L1422.73 855.87" stroke="#132e65" stroke-width="1.5"></path><path d="M1555.93 986.95L1540.89 796.25" stroke="#132e65" stroke-width="1.5"></path><path d="M1555.93 986.95L1309.55 972.34" stroke="#132e65" stroke-width="1.5"></path><circle r="5" cx="-71.55" cy="523.47" fill="#132e65"></circle><circle r="5" cx="-74.24" cy="672.74" fill="#132e65"></circle><circle r="5" cx="-110.33" cy="859.59" fill="#132e65"></circle><circle r="5" cx="-55.67" cy="1010.21" fill="#132e65"></circle><circle r="5" cx="71.38" cy="488.46" fill="#132e65"></circle><circle r="5" cx="83.97" cy="820.38" fill="#132e65"></circle><circle r="5" cx="45.41" cy="946.7" fill="#132e65"></circle><circle r="5" cx="203.96" cy="537.34" fill="#132e65"></circle><circle r="5" cx="243.89" cy="670.9" fill="#132e65"></circle><circle r="5" cx="234.34" cy="819.49" fill="#132e65"></circle><circle r="5" cx="216.51" cy="938.56" fill="#132e65"></circle><circle r="5" cx="400.02" cy="552.15" fill="#132e65"></circle><circle r="5" cx="363.37" cy="674.37" fill="#132e65"></circle><circle r="5" cx="338.09" cy="860.06" fill="#132e65"></circle><circle r="5" cx="354.72" cy="963.81" fill="#132e65"></circle><circle r="5" cx="543.65" cy="387.01" fill="#132e65"></circle><circle r="5" cx="532.15" cy="552.86" fill="#132e65"></circle><circle r="5" cx="524.68" cy="710.94" fill="#132e65"></circle><circle r="5" cx="540.96" cy="813.3" fill="#132e65"></circle><circle r="5" cx="499.52" cy="956.28" fill="#132e65"></circle><circle r="5" cx="695.39" cy="389.45" fill="#132e65"></circle><circle r="5" cx="696.53" cy="536.85" fill="#132e65"></circle><circle r="5" cx="679.83" cy="682.55" fill="#132e65"></circle><circle r="5" cx="685" cy="829.42" fill="#132e65"></circle><circle r="5" cx="707.36" cy="983.93" fill="#132e65"></circle><circle r="5" cx="848.78" cy="198.89" fill="#132e65"></circle><circle r="5" cx="845.37" cy="382" fill="#132e65"></circle><circle r="5" cx="838.16" cy="489.12" fill="#132e65"></circle><circle r="5" cx="831.25" cy="646.24" fill="#132e65"></circle><circle r="5" cx="797.11" cy="834.85" fill="#132e65"></circle><circle r="5" cx="810.02" cy="986.53" fill="#132e65"></circle><circle r="5" cx="987.22" cy="-110.3" fill="#132e65"></circle><circle r="5" cx="1009.38" cy="68.24" fill="#132e65"></circle><circle r="5" cx="977.21" cy="234.2" fill="#132e65"></circle><circle r="5" cx="955.57" cy="361.32" fill="#132e65"></circle><circle r="5" cx="1007.02" cy="500.78" fill="#132e65"></circle><circle r="5" cx="979.02" cy="691.28" fill="#132e65"></circle><circle r="5" cx="949.47" cy="821.87" fill="#132e65"></circle><circle r="5" cx="997.93" cy="1010.89" fill="#132e65"></circle><circle r="5" cx="1095.13" cy="-100.49" fill="#132e65"></circle><circle r="5" cx="1124.86" cy="57.16" fill="#132e65"></circle><circle r="5" cx="1145.11" cy="412.01" fill="#132e65"></circle><circle r="5" cx="1159.41" cy="544.44" fill="#132e65"></circle><circle r="5" cx="1138.83" cy="696.47" fill="#132e65"></circle><circle r="5" cx="1110.9" cy="848.31" fill="#132e65"></circle><circle r="5" cx="1154.76" cy="948.77" fill="#132e65"></circle><circle r="5" cx="1311.24" cy="109.99" fill="#132e65"></circle><circle r="5" cx="1253.24" cy="211.06" fill="#132e65"></circle><circle r="5" cx="1258.11" cy="349.37" fill="#132e65"></circle><circle r="5" cx="1310.81" cy="494.8" fill="#132e65"></circle><circle r="5" cx="1257.33" cy="809.63" fill="#132e65"></circle><circle r="5" cx="1309.55" cy="972.34" fill="#132e65"></circle><circle r="5" cx="1398.38" cy="-47.44" fill="#132e65"></circle><circle r="5" cx="1427.78" cy="63.61" fill="#132e65"></circle><circle r="5" cx="1461.03" cy="260.33" fill="#132e65"></circle><circle r="5" cx="1413.61" cy="373.47" fill="#132e65"></circle><circle r="5" cx="1407.6" cy="527.23" fill="#132e65"></circle><circle r="5" cx="1433.5" cy="675.8" fill="#132e65"></circle><circle r="5" cx="1422.73" cy="855.87" fill="#132e65"></circle><circle r="5" cx="1411.65" cy="1008.28" fill="#132e65"></circle><circle r="5" cx="1548.57" cy="-45.17" fill="#132e65"></circle><circle r="5" cx="1573.38" cy="85.22" fill="#132e65"></circle><circle r="5" cx="1610.15" cy="245.65" fill="#132e65"></circle><circle r="5" cx="1591.54" cy="387" fill="#132e65"></circle><circle r="5" cx="1543.84" cy="510.98" fill="#132e65"></circle><circle r="5" cx="1602.93" cy="649.68" fill="#132e65"></circle><circle r="5" cx="1540.89" cy="796.25" fill="#132e65"></circle><circle r="5" cx="1555.93" cy="986.95" fill="#132e65"></circle><path d="M-45.47 1006.98L-45.47 1006.98" stroke="hsl(228.5, 77.2%, 51.5%)" stroke-width="1.5"></path><path d="M-45.47 1006.98L63.66 946.01" stroke="hsl(228.5, 77.2%, 51.5%)" stroke-width="1.5"></path><path d="M-45.47 1006.98L-94.84 852.66" stroke="hsl(228.5, 77.2%, 51.5%)" stroke-width="1.5"></path><path d="M-45.47 1006.98L46.34 823.73" stroke="hsl(228.5, 77.2%, 51.5%)" stroke-width="1.5"></path><path d="M-45.47 1006.98L232.57 987.08" stroke="hsl(228.5, 77.2%, 51.5%)" stroke-width="1.5"></path><path d="M-45.47 1006.98L-40.12 689.21" stroke="hsl(228.5, 77.2%, 51.5%)" stroke-width="1.5"></path><path d="M-45.47 1006.98L237.23 846.8" stroke="hsl(228.5, 77.2%, 51.5%)" stroke-width="1.5"></path><path d="M63.66 946.01L63.66 946.01" stroke="hsl(228.5, 77.2%, 51.5%)" stroke-width="1.5"></path><path d="M63.66 946.01L46.34 823.73" stroke="hsl(228.5, 77.2%, 51.5%)" stroke-width="1.5"></path><path d="M246.44 640.44L246.44 640.44" stroke="hsl(228.5, 77.2%, 51.5%)" stroke-width="1.5"></path><path d="M246.44 640.44L380.77 662.29" stroke="hsl(228.5, 77.2%, 51.5%)" stroke-width="1.5"></path><path d="M246.44 640.44L80.2 643.34" stroke="hsl(228.5, 77.2%, 51.5%)" stroke-width="1.5"></path><path d="M246.44 640.44L237.23 846.8" stroke="hsl(228.5, 77.2%, 51.5%)" stroke-width="1.5"></path><path d="M246.44 640.44L359.71 840.86" stroke="hsl(228.5, 77.2%, 51.5%)" stroke-width="1.5"></path><path d="M237.23 846.8L237.23 846.8" stroke="hsl(228.5, 77.2%, 51.5%)" stroke-width="1.5"></path><path d="M237.23 846.8L359.71 840.86" stroke="hsl(228.5, 77.2%, 51.5%)" stroke-width="1.5"></path><path d="M237.23 846.8L232.57 987.08" stroke="hsl(228.5, 77.2%, 51.5%)" stroke-width="1.5"></path><path d="M539.06 798.63L539.06 798.63" stroke="hsl(228.5, 77.2%, 51.5%)" stroke-width="1.5"></path><path d="M539.06 798.63L544.61 688.12" stroke="hsl(228.5, 77.2%, 51.5%)" stroke-width="1.5"></path><path d="M539.06 798.63L672.16 811.86" stroke="hsl(228.5, 77.2%, 51.5%)" stroke-width="1.5"></path><path d="M539.06 798.63L659.13 704.94" stroke="hsl(228.5, 77.2%, 51.5%)" stroke-width="1.5"></path><path d="M544.27 1010.06L544.27 1010.06" stroke="hsl(228.5, 77.2%, 51.5%)" stroke-width="1.5"></path><path d="M544.27 1010.06L662.22 957.92" stroke="hsl(228.5, 77.2%, 51.5%)" stroke-width="1.5"></path><path d="M544.27 1010.06L344.76 1011.07" stroke="hsl(228.5, 77.2%, 51.5%)" stroke-width="1.5"></path><path d="M544.27 1010.06L539.06 798.63" stroke="hsl(228.5, 77.2%, 51.5%)" stroke-width="1.5"></path><path d="M544.27 1010.06L672.16 811.86" stroke="hsl(228.5, 77.2%, 51.5%)" stroke-width="1.5"></path><path d="M815.66 822.89L815.66 822.89" stroke="hsl(228.5, 77.2%, 51.5%)" stroke-width="1.5"></path><path d="M815.66 822.89L939.75 827.62" stroke="hsl(228.5, 77.2%, 51.5%)" stroke-width="1.5"></path><path d="M815.66 822.89L828.14 963.33" stroke="hsl(228.5, 77.2%, 51.5%)" stroke-width="1.5"></path><path d="M815.66 822.89L672.16 811.86" stroke="hsl(228.5, 77.2%, 51.5%)" stroke-width="1.5"></path><path d="M828.14 963.33L828.14 963.33" stroke="hsl(228.5, 77.2%, 51.5%)" stroke-width="1.5"></path><path d="M828.14 963.33L939.28 966.64" stroke="hsl(228.5, 77.2%, 51.5%)" stroke-width="1.5"></path><path d="M828.14 963.33L662.22 957.92" stroke="hsl(228.5, 77.2%, 51.5%)" stroke-width="1.5"></path><path d="M828.14 963.33L939.75 827.62" stroke="hsl(228.5, 77.2%, 51.5%)" stroke-width="1.5"></path><path d="M828.14 963.33L672.16 811.86" stroke="hsl(228.5, 77.2%, 51.5%)" stroke-width="1.5"></path><path d="M828.14 963.33L544.27 1010.06" stroke="hsl(228.5, 77.2%, 51.5%)" stroke-width="1.5"></path><path d="M1156.86 193.57L1156.86 193.57" stroke="hsl(228.5, 77.2%, 51.5%)" stroke-width="1.5"></path><path d="M1156.86 193.57L1265.74 219.75" stroke="hsl(228.5, 77.2%, 51.5%)" stroke-width="1.5"></path><path d="M1156.86 193.57L1269.51 346.2" stroke="hsl(228.5, 77.2%, 51.5%)" stroke-width="1.5"></path><path d="M1138.76 948.01L1138.76 948.01" stroke="hsl(228.5, 77.2%, 51.5%)" stroke-width="1.5"></path><path d="M1138.76 948.01L1278.73 956.99" stroke="hsl(228.5, 77.2%, 51.5%)" stroke-width="1.5"></path><path d="M1138.76 948.01L1132.5 806.92" stroke="hsl(228.5, 77.2%, 51.5%)" stroke-width="1.5"></path><path d="M1138.76 948.01L1263.38 828.85" stroke="hsl(228.5, 77.2%, 51.5%)" stroke-width="1.5"></path><path d="M1138.76 948.01L939.28 966.64" stroke="hsl(228.5, 77.2%, 51.5%)" stroke-width="1.5"></path><path d="M1305.41 52.38L1305.41 52.38" stroke="hsl(228.5, 77.2%, 51.5%)" stroke-width="1.5"></path><path d="M1305.41 52.38L1428.98 73.83" stroke="hsl(228.5, 77.2%, 51.5%)" stroke-width="1.5"></path><path d="M1305.41 52.38L1404.08 -66.82" stroke="hsl(228.5, 77.2%, 51.5%)" stroke-width="1.5"></path><path d="M1305.41 52.38L1265.74 219.75" stroke="hsl(228.5, 77.2%, 51.5%)" stroke-width="1.5"></path><path d="M1307.69 556.82L1307.69 556.82" stroke="hsl(228.5, 77.2%, 51.5%)" stroke-width="1.5"></path><path d="M1307.69 556.82L1402.89 506.42" stroke="hsl(228.5, 77.2%, 51.5%)" stroke-width="1.5"></path><path d="M1307.69 556.82L1239.85 653.08" stroke="hsl(228.5, 77.2%, 51.5%)" stroke-width="1.5"></path><path d="M1307.69 556.82L1427.13 658.87" stroke="hsl(228.5, 77.2%, 51.5%)" stroke-width="1.5"></path><path d="M1404.08 -66.82L1404.08 -66.82" stroke="hsl(228.5, 77.2%, 51.5%)" stroke-width="1.5"></path><path d="M1404.08 -66.82L1428.98 73.83" stroke="hsl(228.5, 77.2%, 51.5%)" stroke-width="1.5"></path><path d="M1404.08 -66.82L1553.25 -43.59" stroke="hsl(228.5, 77.2%, 51.5%)" stroke-width="1.5"></path><path d="M1404.08 -66.82L1584.64 49.65" stroke="hsl(228.5, 77.2%, 51.5%)" stroke-width="1.5"></path><path d="M1454.86 978.29L1454.86 978.29" stroke="hsl(228.5, 77.2%, 51.5%)" stroke-width="1.5"></path><path d="M1454.86 978.29L1563.08 982.67" stroke="hsl(228.5, 77.2%, 51.5%)" stroke-width="1.5"></path><path d="M1454.86 978.29L1456.15 845.84" stroke="hsl(228.5, 77.2%, 51.5%)" stroke-width="1.5"></path><path d="M1454.86 978.29L1544.24 849.52" stroke="hsl(228.5, 77.2%, 51.5%)" stroke-width="1.5"></path><path d="M1584.64 49.65L1584.64 49.65" stroke="hsl(228.5, 77.2%, 51.5%)" stroke-width="1.5"></path><path d="M1584.64 49.65L1553.25 -43.59" stroke="hsl(228.5, 77.2%, 51.5%)" stroke-width="1.5"></path><path d="M1584.64 49.65L1428.98 73.83" stroke="hsl(228.5, 77.2%, 51.5%)" stroke-width="1.5"></path><path d="M1584.64 49.65L1600.96 214.29" stroke="hsl(228.5, 77.2%, 51.5%)" stroke-width="1.5"></path><path d="M1584.64 49.65L1305.41 52.38" stroke="hsl(228.5, 77.2%, 51.5%)" stroke-width="1.5"></path><path d="M-40.12 689.21L-40.12 689.21" stroke="hsl(228.5, 77.2%, 51.5%)" stroke-width="1.5"></path><path d="M-40.12 689.21L80.2 643.34" stroke="hsl(228.5, 77.2%, 51.5%)" stroke-width="1.5"></path><path d="M-40.12 689.21L46.34 823.73" stroke="hsl(228.5, 77.2%, 51.5%)" stroke-width="1.5"></path><path d="M-94.84 852.66L-94.84 852.66" stroke="hsl(228.5, 77.2%, 51.5%)" stroke-width="1.5"></path><path d="M-94.84 852.66L46.34 823.73" stroke="hsl(228.5, 77.2%, 51.5%)" stroke-width="1.5"></path><path d="M-94.84 852.66L-40.12 689.21" stroke="hsl(228.5, 77.2%, 51.5%)" stroke-width="1.5"></path><path d="M80.2 643.34L80.2 643.34" stroke="hsl(228.5, 77.2%, 51.5%)" stroke-width="1.5"></path><path d="M80.2 643.34L46.34 823.73" stroke="hsl(228.5, 77.2%, 51.5%)" stroke-width="1.5"></path><path d="M80.2 643.34L237.23 846.8" stroke="hsl(228.5, 77.2%, 51.5%)" stroke-width="1.5"></path><path d="M46.34 823.73L46.34 823.73" stroke="hsl(228.5, 77.2%, 51.5%)" stroke-width="1.5"></path><path d="M232.57 987.08L232.57 987.08" stroke="hsl(228.5, 77.2%, 51.5%)" stroke-width="1.5"></path><path d="M232.57 987.08L344.76 1011.07" stroke="hsl(228.5, 77.2%, 51.5%)" stroke-width="1.5"></path><path d="M232.57 987.08L63.66 946.01" stroke="hsl(228.5, 77.2%, 51.5%)" stroke-width="1.5"></path><path d="M232.57 987.08L359.71 840.86" stroke="hsl(228.5, 77.2%, 51.5%)" stroke-width="1.5"></path><path d="M380.77 662.29L380.77 662.29" stroke="hsl(228.5, 77.2%, 51.5%)" stroke-width="1.5"></path><path d="M380.77 662.29L544.61 688.12" stroke="hsl(228.5, 77.2%, 51.5%)" stroke-width="1.5"></path><path d="M380.77 662.29L359.71 840.86" stroke="hsl(228.5, 77.2%, 51.5%)" stroke-width="1.5"></path><path d="M380.77 662.29L539.06 798.63" stroke="hsl(228.5, 77.2%, 51.5%)" stroke-width="1.5"></path><path d="M380.77 662.29L237.23 846.8" stroke="hsl(228.5, 77.2%, 51.5%)" stroke-width="1.5"></path><path d="M380.77 662.29L659.13 704.94" stroke="hsl(228.5, 77.2%, 51.5%)" stroke-width="1.5"></path><path d="M359.71 840.86L359.71 840.86" stroke="hsl(228.5, 77.2%, 51.5%)" stroke-width="1.5"></path><path d="M359.71 840.86L344.76 1011.07" stroke="hsl(228.5, 77.2%, 51.5%)" stroke-width="1.5"></path><path d="M359.71 840.86L539.06 798.63" stroke="hsl(228.5, 77.2%, 51.5%)" stroke-width="1.5"></path><path d="M344.76 1011.07L344.76 1011.07" stroke="hsl(228.5, 77.2%, 51.5%)" stroke-width="1.5"></path><path d="M544.61 688.12L544.61 688.12" stroke="hsl(228.5, 77.2%, 51.5%)" stroke-width="1.5"></path><path d="M544.61 688.12L659.13 704.94" stroke="hsl(228.5, 77.2%, 51.5%)" stroke-width="1.5"></path><path d="M544.61 688.12L672.16 811.86" stroke="hsl(228.5, 77.2%, 51.5%)" stroke-width="1.5"></path><path d="M544.61 688.12L359.71 840.86" stroke="hsl(228.5, 77.2%, 51.5%)" stroke-width="1.5"></path><path d="M659.13 704.94L659.13 704.94" stroke="hsl(228.5, 77.2%, 51.5%)" stroke-width="1.5"></path><path d="M659.13 704.94L672.16 811.86" stroke="hsl(228.5, 77.2%, 51.5%)" stroke-width="1.5"></path><path d="M672.16 811.86L672.16 811.86" stroke="hsl(228.5, 77.2%, 51.5%)" stroke-width="1.5"></path><path d="M662.22 957.92L662.22 957.92" stroke="hsl(228.5, 77.2%, 51.5%)" stroke-width="1.5"></path><path d="M662.22 957.92L672.16 811.86" stroke="hsl(228.5, 77.2%, 51.5%)" stroke-width="1.5"></path><path d="M662.22 957.92L539.06 798.63" stroke="hsl(228.5, 77.2%, 51.5%)" stroke-width="1.5"></path><path d="M662.22 957.92L815.66 822.89" stroke="hsl(228.5, 77.2%, 51.5%)" stroke-width="1.5"></path><path d="M662.22 957.92L659.13 704.94" stroke="hsl(228.5, 77.2%, 51.5%)" stroke-width="1.5"></path><path d="M846.91 501.21L846.91 501.21" stroke="hsl(228.5, 77.2%, 51.5%)" stroke-width="1.5"></path><path d="M846.91 501.21L951.03 513.15" stroke="hsl(228.5, 77.2%, 51.5%)" stroke-width="1.5"></path><path d="M846.91 501.21L831 657.07" stroke="hsl(228.5, 77.2%, 51.5%)" stroke-width="1.5"></path><path d="M846.91 501.21L1011.91 670.88" stroke="hsl(228.5, 77.2%, 51.5%)" stroke-width="1.5"></path><path d="M846.91 501.21L659.13 704.94" stroke="hsl(228.5, 77.2%, 51.5%)" stroke-width="1.5"></path><path d="M846.91 501.21L1126.72 547.89" stroke="hsl(228.5, 77.2%, 51.5%)" stroke-width="1.5"></path><path d="M831 657.07L831 657.07" stroke="hsl(228.5, 77.2%, 51.5%)" stroke-width="1.5"></path><path d="M831 657.07L815.66 822.89" stroke="hsl(228.5, 77.2%, 51.5%)" stroke-width="1.5"></path><path d="M831 657.07L659.13 704.94" stroke="hsl(228.5, 77.2%, 51.5%)" stroke-width="1.5"></path><path d="M831 657.07L1011.91 670.88" stroke="hsl(228.5, 77.2%, 51.5%)" stroke-width="1.5"></path><path d="M951.03 513.15L951.03 513.15" stroke="hsl(228.5, 77.2%, 51.5%)" stroke-width="1.5"></path><path d="M951.03 513.15L1011.91 670.88" stroke="hsl(228.5, 77.2%, 51.5%)" stroke-width="1.5"></path><path d="M1011.91 670.88L1011.91 670.88" stroke="hsl(228.5, 77.2%, 51.5%)" stroke-width="1.5"></path><path d="M1011.91 670.88L1089.64 687.59" stroke="hsl(228.5, 77.2%, 51.5%)" stroke-width="1.5"></path><path d="M1011.91 670.88L1126.72 547.89" stroke="hsl(228.5, 77.2%, 51.5%)" stroke-width="1.5"></path><path d="M939.75 827.62L939.75 827.62" stroke="hsl(228.5, 77.2%, 51.5%)" stroke-width="1.5"></path><path d="M939.75 827.62L939.28 966.64" stroke="hsl(228.5, 77.2%, 51.5%)" stroke-width="1.5"></path><path d="M939.75 827.62L1011.91 670.88" stroke="hsl(228.5, 77.2%, 51.5%)" stroke-width="1.5"></path><path d="M939.28 966.64L939.28 966.64" stroke="hsl(228.5, 77.2%, 51.5%)" stroke-width="1.5"></path><path d="M939.28 966.64L815.66 822.89" stroke="hsl(228.5, 77.2%, 51.5%)" stroke-width="1.5"></path><path d="M1139.06 384.25L1139.06 384.25" stroke="hsl(228.5, 77.2%, 51.5%)" stroke-width="1.5"></path><path d="M1139.06 384.25L1269.51 346.2" stroke="hsl(228.5, 77.2%, 51.5%)" stroke-width="1.5"></path><path d="M1139.06 384.25L1126.72 547.89" stroke="hsl(228.5, 77.2%, 51.5%)" stroke-width="1.5"></path><path d="M1139.06 384.25L1156.86 193.57" stroke="hsl(228.5, 77.2%, 51.5%)" stroke-width="1.5"></path><path d="M1139.06 384.25L1265.74 219.75" stroke="hsl(228.5, 77.2%, 51.5%)" stroke-width="1.5"></path><path d="M1139.06 384.25L951.03 513.15" stroke="hsl(228.5, 77.2%, 51.5%)" stroke-width="1.5"></path><path d="M1126.72 547.89L1126.72 547.89" stroke="hsl(228.5, 77.2%, 51.5%)" stroke-width="1.5"></path><path d="M1126.72 547.89L1089.64 687.59" stroke="hsl(228.5, 77.2%, 51.5%)" stroke-width="1.5"></path><path d="M1126.72 547.89L1239.85 653.08" stroke="hsl(228.5, 77.2%, 51.5%)" stroke-width="1.5"></path><path d="M1089.64 687.59L1089.64 687.59" stroke="hsl(228.5, 77.2%, 51.5%)" stroke-width="1.5"></path><path d="M1089.64 687.59L1132.5 806.92" stroke="hsl(228.5, 77.2%, 51.5%)" stroke-width="1.5"></path><path d="M1089.64 687.59L1239.85 653.08" stroke="hsl(228.5, 77.2%, 51.5%)" stroke-width="1.5"></path><path d="M1132.5 806.92L1132.5 806.92" stroke="hsl(228.5, 77.2%, 51.5%)" stroke-width="1.5"></path><path d="M1132.5 806.92L1263.38 828.85" stroke="hsl(228.5, 77.2%, 51.5%)" stroke-width="1.5"></path><path d="M1132.5 806.92L1011.91 670.88" stroke="hsl(228.5, 77.2%, 51.5%)" stroke-width="1.5"></path><path d="M1132.5 806.92L1239.85 653.08" stroke="hsl(228.5, 77.2%, 51.5%)" stroke-width="1.5"></path><path d="M1265.74 219.75L1265.74 219.75" stroke="hsl(228.5, 77.2%, 51.5%)" stroke-width="1.5"></path><path d="M1265.74 219.75L1269.51 346.2" stroke="hsl(228.5, 77.2%, 51.5%)" stroke-width="1.5"></path><path d="M1269.51 346.2L1269.51 346.2" stroke="hsl(228.5, 77.2%, 51.5%)" stroke-width="1.5"></path><path d="M1269.51 346.2L1438.97 410.43" stroke="hsl(228.5, 77.2%, 51.5%)" stroke-width="1.5"></path><path d="M1239.85 653.08L1239.85 653.08" stroke="hsl(228.5, 77.2%, 51.5%)" stroke-width="1.5"></path><path d="M1239.85 653.08L1263.38 828.85" stroke="hsl(228.5, 77.2%, 51.5%)" stroke-width="1.5"></path><path d="M1239.85 653.08L1427.13 658.87" stroke="hsl(228.5, 77.2%, 51.5%)" stroke-width="1.5"></path><path d="M1263.38 828.85L1263.38 828.85" stroke="hsl(228.5, 77.2%, 51.5%)" stroke-width="1.5"></path><path d="M1263.38 828.85L1278.73 956.99" stroke="hsl(228.5, 77.2%, 51.5%)" stroke-width="1.5"></path><path d="M1263.38 828.85L1456.15 845.84" stroke="hsl(228.5, 77.2%, 51.5%)" stroke-width="1.5"></path><path d="M1278.73 956.99L1278.73 956.99" stroke="hsl(228.5, 77.2%, 51.5%)" stroke-width="1.5"></path><path d="M1278.73 956.99L1454.86 978.29" stroke="hsl(228.5, 77.2%, 51.5%)" stroke-width="1.5"></path><path d="M1278.73 956.99L1456.15 845.84" stroke="hsl(228.5, 77.2%, 51.5%)" stroke-width="1.5"></path><path d="M1428.98 73.83L1428.98 73.83" stroke="hsl(228.5, 77.2%, 51.5%)" stroke-width="1.5"></path><path d="M1438.97 410.43L1438.97 410.43" stroke="hsl(228.5, 77.2%, 51.5%)" stroke-width="1.5"></path><path d="M1438.97 410.43L1402.89 506.42" stroke="hsl(228.5, 77.2%, 51.5%)" stroke-width="1.5"></path><path d="M1438.97 410.43L1560.08 411.1" stroke="hsl(228.5, 77.2%, 51.5%)" stroke-width="1.5"></path><path d="M1438.97 410.43L1556.45 536.32" stroke="hsl(228.5, 77.2%, 51.5%)" stroke-width="1.5"></path><path d="M1402.89 506.42L1402.89 506.42" stroke="hsl(228.5, 77.2%, 51.5%)" stroke-width="1.5"></path><path d="M1427.13 658.87L1427.13 658.87" stroke="hsl(228.5, 77.2%, 51.5%)" stroke-width="1.5"></path><path d="M1427.13 658.87L1577.3 651.17" stroke="hsl(228.5, 77.2%, 51.5%)" stroke-width="1.5"></path><path d="M1456.15 845.84L1456.15 845.84" stroke="hsl(228.5, 77.2%, 51.5%)" stroke-width="1.5"></path><path d="M1456.15 845.84L1544.24 849.52" stroke="hsl(228.5, 77.2%, 51.5%)" stroke-width="1.5"></path><path d="M1553.25 -43.59L1553.25 -43.59" stroke="hsl(228.5, 77.2%, 51.5%)" stroke-width="1.5"></path><path d="M1553.25 -43.59L1428.98 73.83" stroke="hsl(228.5, 77.2%, 51.5%)" stroke-width="1.5"></path><path d="M1553.25 -43.59L1600.96 214.29" stroke="hsl(228.5, 77.2%, 51.5%)" stroke-width="1.5"></path><path d="M1600.96 214.29L1600.96 214.29" stroke="hsl(228.5, 77.2%, 51.5%)" stroke-width="1.5"></path><path d="M1600.96 214.29L1560.08 411.1" stroke="hsl(228.5, 77.2%, 51.5%)" stroke-width="1.5"></path><path d="M1560.08 411.1L1560.08 411.1" stroke="hsl(228.5, 77.2%, 51.5%)" stroke-width="1.5"></path><path d="M1560.08 411.1L1556.45 536.32" stroke="hsl(228.5, 77.2%, 51.5%)" stroke-width="1.5"></path><path d="M1560.08 411.1L1402.89 506.42" stroke="hsl(228.5, 77.2%, 51.5%)" stroke-width="1.5"></path><path d="M1560.08 411.1L1577.3 651.17" stroke="hsl(228.5, 77.2%, 51.5%)" stroke-width="1.5"></path><path d="M1560.08 411.1L1427.13 658.87" stroke="hsl(228.5, 77.2%, 51.5%)" stroke-width="1.5"></path><path d="M1556.45 536.32L1556.45 536.32" stroke="hsl(228.5, 77.2%, 51.5%)" stroke-width="1.5"></path><path d="M1556.45 536.32L1577.3 651.17" stroke="hsl(228.5, 77.2%, 51.5%)" stroke-width="1.5"></path><path d="M1577.3 651.17L1577.3 651.17" stroke="hsl(228.5, 77.2%, 51.5%)" stroke-width="1.5"></path><path d="M1577.3 651.17L1544.24 849.52" stroke="hsl(228.5, 77.2%, 51.5%)" stroke-width="1.5"></path><path d="M1577.3 651.17L1402.89 506.42" stroke="hsl(228.5, 77.2%, 51.5%)" stroke-width="1.5"></path><path d="M1577.3 651.17L1456.15 845.84" stroke="hsl(228.5, 77.2%, 51.5%)" stroke-width="1.5"></path><path d="M1544.24 849.52L1544.24 849.52" stroke="hsl(228.5, 77.2%, 51.5%)" stroke-width="1.5"></path><path d="M1544.24 849.52L1563.08 982.67" stroke="hsl(228.5, 77.2%, 51.5%)" stroke-width="1.5"></path><path d="M1544.24 849.52L1427.13 658.87" stroke="hsl(228.5, 77.2%, 51.5%)" stroke-width="1.5"></path><path d="M1544.24 849.52L1263.38 828.85" stroke="hsl(228.5, 77.2%, 51.5%)" stroke-width="1.5"></path><path d="M1563.08 982.67L1563.08 982.67" stroke="hsl(228.5, 77.2%, 51.5%)" stroke-width="1.5"></path><circle r="25" cx="-45.47" cy="1006.98" fill="url(#SvgjsRadialGradient1007)"></circle><circle r="25" cx="63.66" cy="946.01" fill="url(#SvgjsRadialGradient1007)"></circle><circle r="25" cx="246.44" cy="640.44" fill="url(#SvgjsRadialGradient1007)"></circle><circle r="25" cx="237.23" cy="846.8" fill="url(#SvgjsRadialGradient1007)"></circle><circle r="25" cx="539.06" cy="798.63" fill="url(#SvgjsRadialGradient1007)"></circle><circle r="25" cx="544.27" cy="1010.06" fill="url(#SvgjsRadialGradient1007)"></circle><circle r="25" cx="815.66" cy="822.89" fill="url(#SvgjsRadialGradient1007)"></circle><circle r="25" cx="828.14" cy="963.33" fill="url(#SvgjsRadialGradient1007)"></circle><circle r="25" cx="1156.86" cy="193.57" fill="url(#SvgjsRadialGradient1007)"></circle><circle r="25" cx="1138.76" cy="948.01" fill="url(#SvgjsRadialGradient1007)"></circle><circle r="25" cx="1305.41" cy="52.38" fill="url(#SvgjsRadialGradient1007)"></circle><circle r="25" cx="1307.69" cy="556.82" fill="url(#SvgjsRadialGradient1007)"></circle><circle r="25" cx="1404.08" cy="-66.82" fill="url(#SvgjsRadialGradient1007)"></circle><circle r="25" cx="1454.86" cy="978.29" fill="url(#SvgjsRadialGradient1007)"></circle><circle r="25" cx="1584.64" cy="49.65" fill="url(#SvgjsRadialGradient1007)"></circle><circle r="5" cx="-40.12" cy="689.21" fill="#8b9ad9"></circle><circle r="5" cx="-94.84" cy="852.66" fill="#8b9ad9"></circle><circle r="5" cx="80.2" cy="643.34" fill="#8b9ad9"></circle><circle r="5" cx="46.34" cy="823.73" fill="#8b9ad9"></circle><circle r="5" cx="232.57" cy="987.08" fill="#8b9ad9"></circle><circle r="5" cx="380.77" cy="662.29" fill="#8b9ad9"></circle><circle r="5" cx="359.71" cy="840.86" fill="#8b9ad9"></circle><circle r="5" cx="344.76" cy="1011.07" fill="#8b9ad9"></circle><circle r="5" cx="544.61" cy="688.12" fill="#8b9ad9"></circle><circle r="5" cx="659.13" cy="704.94" fill="#8b9ad9"></circle><circle r="5" cx="672.16" cy="811.86" fill="#8b9ad9"></circle><circle r="5" cx="662.22" cy="957.92" fill="#8b9ad9"></circle><circle r="5" cx="846.91" cy="501.21" fill="#8b9ad9"></circle><circle r="5" cx="831" cy="657.07" fill="#8b9ad9"></circle><circle r="5" cx="951.03" cy="513.15" fill="#8b9ad9"></circle><circle r="5" cx="1011.91" cy="670.88" fill="#8b9ad9"></circle><circle r="5" cx="939.75" cy="827.62" fill="#8b9ad9"></circle><circle r="5" cx="939.28" cy="966.64" fill="#8b9ad9"></circle><circle r="5" cx="1139.06" cy="384.25" fill="#8b9ad9"></circle><circle r="5" cx="1126.72" cy="547.89" fill="#8b9ad9"></circle><circle r="5" cx="1089.64" cy="687.59" fill="#8b9ad9"></circle><circle r="5" cx="1132.5" cy="806.92" fill="#8b9ad9"></circle><circle r="5" cx="1265.74" cy="219.75" fill="#8b9ad9"></circle><circle r="5" cx="1269.51" cy="346.2" fill="#8b9ad9"></circle><circle r="5" cx="1239.85" cy="653.08" fill="#8b9ad9"></circle><circle r="5" cx="1263.38" cy="828.85" fill="#8b9ad9"></circle><circle r="5" cx="1278.73" cy="956.99" fill="#8b9ad9"></circle><circle r="5" cx="1428.98" cy="73.83" fill="#8b9ad9"></circle><circle r="5" cx="1438.97" cy="410.43" fill="#8b9ad9"></circle><circle r="5" cx="1402.89" cy="506.42" fill="#8b9ad9"></circle><circle r="5" cx="1427.13" cy="658.87" fill="#8b9ad9"></circle><circle r="5" cx="1456.15" cy="845.84" fill="#8b9ad9"></circle><circle r="5" cx="1553.25" cy="-43.59" fill="#8b9ad9"></circle><circle r="5" cx="1600.96" cy="214.29" fill="#8b9ad9"></circle><circle r="5" cx="1560.08" cy="411.1" fill="#8b9ad9"></circle><circle r="5" cx="1556.45" cy="536.32" fill="#8b9ad9"></circle><circle r="5" cx="1577.3" cy="651.17" fill="#8b9ad9"></circle><circle r="5" cx="1544.24" cy="849.52" fill="#8b9ad9"></circle><circle r="5" cx="1563.08" cy="982.67" fill="#8b9ad9"></circle></g><defs><mask id="SvgjsMask1006"><rect width="1440" height="800" fill="#ffffff"></rect></mask><radialGradient id="SvgjsRadialGradient1007"><stop stop-color="#ffffff" offset="0.1"></stop><stop stop-color="#1735b3" offset="0.2"></stop><stop stop-color="rgba(23, 53, 179, 0)" offset="1"></stop></radialGradient></defs></svg>